<?xml version="1.0"?>
<svg version="1.1" id="Layer_1" xmlns="http://www.w3.org/2000/svg" x="0" y="0" viewBox="0 0 100 100" xml:space="preserve"><path stroke-width="3.5" stroke-miterlimit="10" fill="#f4e6c8" stroke="#323232" stroke-linejoin="round" d="M34.298 18.448l-13.831 9.859v45.182l13.831-9.86z"/><path d="M79.498 80.14l-45.2-16.511V18.448c-2.637-19.49 48.281-1.554 45.2 16.511V80.14z" stroke-width="3.5" stroke-miterlimit="10" fill="#f4e6c8" stroke="#323232" stroke-linejoin="round"/><path d="M65.667 90l-45.2-16.511V28.308c-2.637-19.49 48.281-1.554 45.2 16.511V90z" stroke-width="3.5" stroke-miterlimit="10" fill="#f4e6c8" stroke="#323232" stroke-linejoin="round"/><path fill="#f0ae6b" stroke="#323232" stroke-width="3.5" stroke-linejoin="round" stroke-miterlimit="10" d="M65.667 44.819l13.831-9.86V80.14L65.667 90z"/><path d="M35.986 12.372c.14-.106.278-.214.415-.325a7.111 7.111 0 0 1 .956-.65c.233-.132.474-.253.719-.361a9.45 9.45 0 0 1 .779-.305c.275-.095.555-.177.837-.25.294-.076.591-.141.89-.197a15.8 15.8 0 0 1 .94-.144c.328-.04.657-.071.987-.093.343-.023.686-.037 1.03-.043.356-.006.713-.004 1.069.006.369.01.737.029 1.105.054a31 31 0 0 1 2.305.245 39.914 39.914 0 0 1 3.638.695 48.355 48.355 0 0 1 3.771 1.058 57.35 57.35 0 0 1 2.541.89 57.409 57.409 0 0 1 3.78 1.589 56.154 56.154 0 0 1 3.659 1.862 52.603 52.603 0 0 1 2.324 1.378 48.496 48.496 0 0 1 2.199 1.475 41.283 41.283 0 0 1 2.046 1.563 35.307 35.307 0 0 1 1.865 1.64 28.42 28.42 0 0 1 1.654 1.708 22.83 22.83 0 0 1 1.417 1.766 18.274 18.274 0 0 1 1.15 1.815 13.537 13.537 0 0 1 .856 1.853c.115.308.219.621.309.938a10.878 10.878 0 0 1 .361 1.893 9.754 9.754 0 0 1-.005 1.906c-.021.208-.05.415-.085.621l-13.831 9.86c2.647-15.525-34.584-30.954-43.435-22.617l.132-.094.374-.266.585-.417.764-.544.912-.649 1.028-.732 1.113-.792 1.166-.83 1.188-.846 1.178-.838 1.136-.809 1.063-.757.958-.682.822-.585c.371-.264.734-.538 1.099-.811l.236-.178z" fill="#f0ae6b" stroke="#323232" stroke-width="3.5" stroke-linejoin="round" stroke-miterlimit="10"/><metadata xmlns:d="https://loading.io/stock/"><d:name>bread</d:name><d:tags>bread,toast,food,eat,bakery,cook,loaf of bread,bun,breakfast</d:tags><d:license>by</d:license><d:slug>e2i5is</d:slug></metadata></svg>