<?xml version="1.0"?>
<svg version="1.1" id="圖層_1" xmlns="http://www.w3.org/2000/svg" x="0" y="0" viewBox="0 0 100 100" xml:space="preserve"><path d="M52.3 74.4h0c-7.7 4-17.2 1-21.2-6.7L15.7 38.2c-4-7.7-1-17.2 6.7-21.2h0c7.7-4 17.2-1 21.2 6.7L59 53.1c4 7.8 1 17.3-6.7 21.3z" fill="#abbd81" stroke="#333" stroke-width="4" stroke-miterlimit="10"/><path d="M52.3 75.9c1.4 3.2 2.8 6.5 5 9.3 2.2 2.8 5.1 5.1 8.6 5.8 3.9.7 8-.9 10.6-3.8 3.5-4.1 2.4-10.8 1.5-15.6-1.1-6.2-.6-13.6 5.4-17.2 2.7-1.6 6.4-1.9 9-.1" fill="none" stroke="#333" stroke-width="4" stroke-miterlimit="10" stroke-linecap="round"/><path d="M26.9 31.3c1.1 0 2.2-.1 3.2.4 1 .4 1.8 1.5 1.6 2.6-.3 1.4-2 2.1-2.3 3.4-.3 1.5 1.5 2.7 3 2.8 1.6.1 3.1-.5 4.7-.4.6.1 1.1.2 1.5.6 1.2 1.1.1 3.1-1.1 4.3s-2.6 2.8-1.8 4.2c.7 1.5 2.8 1.4 4.4.9 1.6-.5 3.4-1 4.6.1 1.3 1.2.7 3.4-.3 4.9-1 1.5-2.3 3.1-2 4.9 0 .1 0 .3.1.4.1.1.3.2.5.2.9 0 1.8.1 2.7.1" fill="none" stroke="#849b87" stroke-width="3" stroke-linecap="round" stroke-miterlimit="10"/><path d="M36.4 16.9c.7-2.6 2-5 3.8-7" stroke="#333" fill="none" stroke-width="3" stroke-linecap="round" stroke-miterlimit="10"/><path d="M45.9 27.6c2.4-.6 4.8-1.4 7.1-2.4" stroke="#333" fill="none" stroke-width="3" stroke-linecap="round" stroke-miterlimit="10"/><path d="M53.1 42c2.1-1.5 4.4-2.6 6.9-3.3" stroke="#333" fill="none" stroke-width="3" stroke-linecap="round" stroke-miterlimit="10"/><path d="M59.8 54.9c2.4-1 5.1-1.4 7.7-1" stroke="#333" fill="none" stroke-width="3" stroke-linecap="round" stroke-miterlimit="10"/><path d="M23.1 15.1c-1-1.9-1.6-4.1-1.6-6.2" stroke="#333" fill="none" stroke-width="3" stroke-linecap="round" stroke-miterlimit="10"/><path d="M15 24c-2.2-.8-4.3-1.7-6.3-2.8" stroke="#333" fill="none" stroke-width="3" stroke-linecap="round" stroke-miterlimit="10"/><path d="M13.7 35.6c-1.9 1.1-4 1.7-6.2 1.8" stroke="#333" fill="none" stroke-width="3" stroke-linecap="round" stroke-miterlimit="10"/><path d="M19.5 45c-1.8.9-3.6 1.9-5.4 2.8" stroke="#333" fill="none" stroke-width="3" stroke-linecap="round" stroke-miterlimit="10"/><path d="M24.3 55.5c-1.8 1.4-3.7 2.8-5.5 4.2" stroke="#333" fill="none" stroke-width="3" stroke-linecap="round" stroke-miterlimit="10"/><path d="M33.1 70.4c-1.7 1.9-2.9 4.3-3.6 6.8" stroke="#333" fill="none" stroke-width="3" stroke-linecap="round" stroke-miterlimit="10"/><metadata xmlns:d="https://loading.io/stock/"><d:name>bacteria</d:name><d:tags>bacteria,disease,infection,contagious,pollution,virus</d:tags><d:license>by</d:license><d:slug>issj2l</d:slug></metadata></svg>