<?xml version="1.0"?>
<svg version="1.1" id="圖層_1" xmlns="http://www.w3.org/2000/svg" x="0" y="0" viewBox="0 0 100 100" xml:space="preserve"><g><path d="M49.3 28.9c-1.4-1.7-2.1-4-2.2-6.2 0-1.1.1-2.3.4-3.4.1-.6.3-1.1.5-1.7.2-.6.4-1 .7-1.5.9-1.9 2.2-3.9 3.9-5.4 1.8-1.5 4-2.4 6.2-2.4-1.7 1.4-3.1 2.7-4.2 4.3-1.1 1.5-1.9 3.2-2.8 5-.5.9-.9 1.7-1.2 2.6-.3.9-.6 1.7-.8 2.7-.3 1.9-.5 3.8-.5 6z" fill="#323232"/></g><path d="M63.2 28.4v-1.3c0-1.2-.2-2.4-.6-3.6-.8-2.8-2.6-4.8-6.4-5h-1.3c-.9 0-1.8.2-2.7.3-.5.1-1.1.2-1.6.4-.2 0-.5.2-.7.3-.2.1-.4.1-.6.2h-.1-.1c-.2-.1-.4-.1-.6-.2-.3-.1-.6-.2-.7-.3-.5-.1-1-.3-1.6-.4-.9-.2-1.8-.3-2.7-.3h-1.3c-3.7.2-5.5 2.2-6.4 5-.4 1.2-.6 2.4-.6 3.6V29c0 6.9 6.2 10.2 13.9 10.2h.2c7.7 0 13.9-3.3 13.9-10.2v-.6z" fill="#c33636" stroke="#333" stroke-width="3.5" stroke-miterlimit="10"/><path d="M71.9 54.2H26.3c-4.2 0-7.6-3.4-7.6-7.6v0c0-4.2 3.4-7.6 7.6-7.6h45.6c4.2 0 7.6 3.4 7.6 7.6v0c0 4.2-3.4 7.6-7.6 7.6z" fill="#e0e0e0" stroke="#333" stroke-width="3.5" stroke-miterlimit="10"/><path d="M63.8 89.9H34.4c-1.9 0-3.7-1.3-4.2-3.1l-9.1-29c-.7-2.1.9-4.3 3.1-4.3H74c2.2 0 3.8 2.1 3.1 4.3l-9.1 29c-.5 1.8-2.2 3.1-4.2 3.1z" fill="#66503a" stroke="#333" stroke-width="3.5" stroke-miterlimit="10"/><g opacity=".2"><path d="M45.8 17.1h-.3v.1c0-.1.1-.1.3-.1z"/><path d="M48.4 16.8h.6c3.5.2 5.9 2.3 6.9 6.2.4 1.2.6 2.6.6 4V28.9c0 3.4-1.2 6.2-3.2 8.2h7.9c2.4-2.1 3.7-4.9 3.7-8.2v-.6V27c0-1.4-.3-2.8-.7-4-1.1-3.9-3.9-6-7.9-6.2h-1.4c-.8 0-1.7.1-2.7.3.8-1.6 1.6-3.1 2.5-4.5 1.1-1.5 2.5-2.9 4.2-4.3-2.2 0-4.4.9-6.2 2.4-1.8 1.5-3 3.4-3.9 5.4-.2.3-.3.5-.4.7z"/><path d="M40.4 17.2c.5.1 1 .2 1.4.4.1-.3.2-.5.3-.7h-.2c-.7 0-1.3.1-1.9.3.2-.1.3 0 .4 0z"/><path d="M77.9 53.7c2-1.7 3.3-4.3 3.3-7.1 0-5.2-4.2-9.3-9.3-9.3h-9.3c4.5 0 8.1 4.2 8.1 9.3 0 2.8-1.1 5.4-2.9 7.1 0 0 0 .1.1.1.8 1.3 1.1 2.9.7 4.5l-7.9 29c-.7 2.6-2.8 4.3-5.1 4.3h8.2c2.7 0 5.1-1.7 5.9-4.3l9.1-29c.5-1.5.2-3.2-.9-4.6.1.1.1.1 0 0z"/></g><path d="M64 40.6c-1.4 1.3-2.1 3.3-2 5.2" stroke="#f7b16a" fill="none" stroke-width="3.711" stroke-linecap="round" stroke-miterlimit="10"/><path d="M36.9 47.4c-.7-1.8-2.2-3.2-4.1-3.8" stroke="#839a86" fill="none" stroke-width="3.711" stroke-linecap="round" stroke-miterlimit="10"/><path d="M51.2 49.3c-1.4-1.4-3.3-2.1-5.2-1.9" stroke="#e15c64" fill="none" stroke-width="3.711" stroke-linecap="round" stroke-miterlimit="10"/><path d="M44.8 23.5c-1.8-.8-4.6-1-4.8 2.5" stroke-linecap="round" fill="#c33636" stroke="#fff" stroke-width="3.5" stroke-miterlimit="10"/><path stroke-linecap="round" fill="none" stroke="#fff" stroke-width="3.5" stroke-miterlimit="10" d="M39.9 30.8l.1.3"/><path stroke-linecap="round" fill="none" stroke="#fff" stroke-width="3.5" stroke-miterlimit="10" d="M32.5 73.9l1 2.9"/><path stroke-linecap="round" fill="none" stroke="#fff" stroke-width="3.5" stroke-miterlimit="10" d="M27.6 59.4l2.9 8.4"/><metadata xmlns:d="https://loading.io/stock/"><d:name>cupcake</d:name><d:tags>cupcake,muffin,dessert,custard,cherry</d:tags><d:license>by</d:license><d:slug>scq1wo</d:slug></metadata></svg>