<?xml version="1.0"?><svg version="1.1" id="Layer_1" xmlns="http://www.w3.org/2000/svg" x="0" y="0" viewBox="0 0 100 100" xml:space="preserve"><g><path d="M50 10c-22.1 0-40 17.9-40 40s17.9 40 40 40 40-17.9 40-40-17.9-40-40-40zm0 57.5c-9.7 0-17.5-7.8-17.5-17.5S40.3 32.5 50 32.5 67.5 40.3 67.5 50 59.7 67.5 50 67.5z" stroke-linecap="round" fill="#f7b26a" stroke="#333" stroke-width="3" stroke-miterlimit="10"/><path d="M50 10c-22.1 0-40 17.9-40 40 0 9.2 3.1 17.7 8.3 24.4 1.7-.9 2.9-2.6 2.9-4.6v-.3c0-2.9 2.4-5.2 5.4-5.2h1c3 0 5.4 2.3 5.4 5.2v5c0 2.9 2.4 5.2 5.4 5.2h1c3 0 5.4-2.3 5.4-5.2s2.4-5.2 5.4-5.2h1c3 0 5.4 2.3 5.4 5.2v1.8c0 2.9 2.4 5.2 5.4 5.2h1c3 0 5.4-2.3 5.4-5.2V63c0-2.9 2.4-5.2 5.4-5.2h1c3 0 5.4 2.3 5.4 5.2v2.4c0 2.4 1.7 4.4 4 5 3.6-6 5.6-13 5.6-20.4C90 27.9 72.1 10 50 10zm0 57.5c-9.7 0-17.5-7.8-17.5-17.5S40.3 32.5 50 32.5 67.5 40.3 67.5 50 59.7 67.5 50 67.5z" stroke-width="3" stroke-miterlimit="10" fill="#e15c64" stroke="#333" stroke-linecap="round"/></g><path d="M37.9 31.5c.6-1.8 1.6-3.1 3.4-3.2" stroke-miterlimit="10" stroke="#f5e169" fill="none" stroke-width="2" stroke-linecap="round"/><path d="M72.8 42.4c1.2-1.5 2.5-2.5 4.3-2" stroke-miterlimit="10" stroke="#f5e169" fill="none" stroke-width="2" stroke-linecap="round"/><path d="M28.3 19.1c1.7.8 2.9 1.9 2.9 3.7" stroke-miterlimit="10" stroke="#f5e169" fill="none" stroke-width="2" stroke-linecap="round"/><path d="M71.3 22.9c-1.1 1.5-2.4 2.5-4.2 2.2" stroke-miterlimit="10" stroke="#f5e169" fill="none" stroke-width="2" stroke-linecap="round"/><path d="M65.7 29.2c.5 1.8.4 3.5-1 4.6" stroke-miterlimit="10" stroke="#f5e169" fill="none" stroke-width="2" stroke-linecap="round"/><path d="M19.9 54.5c-1.7.8-3.3 1.2-4.7 0" stroke-miterlimit="10" stroke="#f5e169" fill="none" stroke-width="2" stroke-linecap="round"/><path d="M71.8 30.9c1.9.2 3.4.7 4 2.4" stroke-width="2" stroke-miterlimit="10" fill="none" stroke="#acbd81" stroke-linecap="round"/><path d="M21.2 48.4c.9-1.6 2.1-2.8 3.9-2.6" stroke-width="2" stroke-miterlimit="10" fill="none" stroke="#acbd81" stroke-linecap="round"/><path d="M75 53.2c-1.9-.1-3.4-.6-4.1-2.3" stroke-width="2" stroke-miterlimit="10" fill="none" stroke="#acbd81" stroke-linecap="round"/><path d="M57.7 27.2c-1.6 1-3.1 1.6-4.7.6" stroke-width="2" stroke-miterlimit="10" fill="none" stroke="#acbd81" stroke-linecap="round"/><path d="M41 72.8c-1.6-1-2.7-2.2-2.5-4" stroke-width="2" stroke-miterlimit="10" fill="none" stroke="#acbd81" stroke-linecap="round"/><path d="M42.6 19.1c-1.8-.4-3.3-1.1-3.7-2.9" stroke-width="2" stroke-miterlimit="10" fill="none" stroke="#acbd81" stroke-linecap="round"/><path d="M30.6 59c-1.8.6-3.4.6-4.7-.7" stroke-linecap="round" fill="none" stroke="#a0c8d7" stroke-width="2" stroke-miterlimit="10"/><path d="M49.1 18.7c1.8.5 3.2 1.4 3.5 3.2" stroke-linecap="round" fill="none" stroke="#a0c8d7" stroke-width="2" stroke-miterlimit="10"/><path d="M81.7 44c1.5 1.2 2.4 2.5 1.9 4.3" stroke-linecap="round" fill="none" stroke="#a0c8d7" stroke-width="2" stroke-miterlimit="10"/><path d="M63.9 16.7c-1.8.6-3.4.8-4.7-.5" stroke-linecap="round" fill="none" stroke="#a0c8d7" stroke-width="2" stroke-miterlimit="10"/><path d="M27.5 35.9c-1.9.1-3.5-.2-4.4-1.9" stroke-linecap="round" fill="none" stroke="#a0c8d7" stroke-width="2" stroke-miterlimit="10"/><path d="M59.4 70.9c1.9-.1 3.5.2 4.3 1.8" stroke-linecap="round" fill="none" stroke="#a0c8d7" stroke-width="2" stroke-miterlimit="10"/><metadata xmlns:d="https://loading.io/stock/">
<d:name>donut</d:name>
<d:tags>donut,doughnut,sweet roll,cruller,chocolate</d:tags>
<d:license>by</d:license>
<d:slug>fexoyb</d:slug>
</metadata></svg>