<?xml version="1.0" encoding="utf-8"?><!--Generator: Adobe Illustrator 21.0.0, SVG Export Plug-In . SVG Version: 6.00 Build 0)--><svg version="1.1" id="圖層_1" xmlns="http://www.w3.org/2000/svg" xmlns:xlink="http://www.w3.org/1999/xlink" x="0px" y="0px" viewBox="0 0 100 100" enable-background="new 0 0 100 100" xml:space="preserve"><line fill="none" stroke="#333333" stroke-width="3.5" stroke-linecap="round" stroke-linejoin="round" stroke-miterlimit="10" x1="63.4" y1="7.5" x2="53.9" y2="60.1"/><polygon fill="#D2D2D3" stroke="#333333" stroke-width="3.5" stroke-linecap="round" stroke-linejoin="round" stroke-miterlimit="10" points=" 73.3,34.4 26.7,34.4 27.6,26.4 72.4,26.4 "/><g><polygon fill="#77A4BD" stroke="#333333" stroke-width="3.5" stroke-linecap="round" stroke-linejoin="round" stroke-miterlimit="10" points=" 65,92.5 35,92.5 32.1,34.4 67.9,34.4 	"/><path fill="#FFFFFF" stroke="#333333" stroke-width="3.5" stroke-linecap="round" stroke-linejoin="round" stroke-miterlimit="10" d=" M58.1,53.9c-5.6-0.4-11.3,0.8-17,0.3c-2.8-0.3-5.8-1.1-8.2-2.6l0.6,11.2c0.6,0.4,1.3,0.7,1.9,0.9c3.5,1.4,7.3,1.9,10.9,2.8 c7.6,2.1,14.4,6.8,19.3,13l1.2-23.7C64,54.8,61.1,54.1,58.1,53.9z"/></g><metadata xmlns:d="https://loading.io/stock/">
<d:name>drinks</d:name>
<d:tags>cola,cup,pop,soda,soft drinks,water,bottle</d:tags>
<d:license>by</d:license>
<d:slug>ttqyif</d:slug>
</metadata></svg>