<?xml version="1.0"?>
<svg version="1.1" id="圖層_1" xmlns="http://www.w3.org/2000/svg" x="0" y="0" viewBox="0 0 100 100" xml:space="preserve"><path d="M67.5 91.9c0 2.5-39 2.5-39 0v-68h39v68z" fill="#e0e0e0" stroke="#333" stroke-width="3.5" stroke-miterlimit="10"/><path fill="#f5e6c8" stroke="#333" stroke-width="3.5" stroke-miterlimit="10" d="M70 6.7l-20.8 7.4-13.3 43.3 6.7 2 12.3-39.8 17.5-6.2z"/><path opacity=".2" stroke="#000" stroke-width="3.5" stroke-miterlimit="10" d="M53.9 17.6L41 58.3l1.6 1.1 12.3-39.8 17.5-6.2-.8-2.2z"/><path d="M63.7 88.4c0 2.2-31.5 2.2-31.5 0V42.2h31.5v46.2z" fill="#f7b16a"/><path opacity=".3" fill="#fff" d="M32.2 28h31.5v14.2H32.2z"/><path fill="none" stroke="#fff" stroke-width="3" stroke-linecap="round" stroke-miterlimit="10" d="M36.2 48.2v11"/><path fill="none" stroke="#fff" stroke-width="3" stroke-linecap="round" stroke-miterlimit="10" d="M36.2 65.2v2"/><path d="M53.6 23.9c2.5 2.8 4 6.4 4 10.4v50.3c0 3.4-1.1 6.6-3 9.1 7.1-.2 12.9-.8 12.9-1.8v-68H53.6z" opacity=".2" stroke="#000" stroke-width="3.5" stroke-linejoin="round" stroke-miterlimit="10"/><metadata xmlns:d="https://loading.io/stock/"><d:name>cup</d:name><d:tags>cup,drink,milk tea,orange juice,coke,cold pop</d:tags><d:license>by</d:license><d:slug>rnn59y</d:slug></metadata></svg>