<?xml version="1.0"?>
<svg version="1.1" id="圖層_1" xmlns="http://www.w3.org/2000/svg" x="0" y="0" viewBox="0 0 100 100" xml:space="preserve"><path d="M51 75.1l-5.5-.1c-.5 0-.8-.4-.8-.9l1.6-46.6c0-.5.4-.8.9-.8l4.6.1c.5 0 .8.4.8.8l-.7 46.6c0 .6-.4 1-.9.9z" fill="#e2d5b9" stroke="#333" stroke-width="3.5" stroke-miterlimit="10"/><path d="M72.6 69.6l-5.5-.1c-.5 0-.8-.4-.8-.9L67.9 22c0-.5.4-.8.9-.8l4.6.1c.5 0 .8.4.8.8l-.7 46.6c0 .5-.4.9-.9.9z" fill="#e2d5b9" stroke="#333" stroke-width="3.5" stroke-miterlimit="10"/><path d="M62.4 63.8l-5.5-.1c-.5 0-.8-.4-.8-.9l1.6-46.6c0-.5.4-.8.9-.8l4.6.1c.5 0 .8.4.8.8L63.3 63c0 .5-.4.9-.9.8z" fill="#e2d5b9" stroke="#333" stroke-width="3.5" stroke-miterlimit="10"/><path d="M43.2 63l-5.5.4c-.5 0-.9-.3-.9-.8l-3-46.5c0-.5.3-.8.8-.9l4.6-.3c.5 0 .9.3.9.8l4 46.5c-.1.4-.4.8-.9.8z" fill="#e2d5b9" stroke="#333" stroke-width="3.5" stroke-miterlimit="10"/><path d="M36.7 61.3L31.4 63c-.4.1-.9-.1-1-.6L16.8 17.8c-.1-.4.1-.9.5-1l4.4-1.4c.4-.1.9.1 1 .5l14.4 44.4c.3.4 0 .9-.4 1z" fill="#f3e5c7" stroke="#333" stroke-width="3.5" stroke-miterlimit="10"/><path d="M54.5 70.1l-5.5-.5c-.5 0-.8-.5-.7-.9l5-46.4c0-.5.5-.8.9-.7l4.6.4c.5 0 .8.4.7.9l-4 46.5c-.2.4-.6.8-1 .7z" fill="#f3e5c7" stroke="#333" stroke-width="3.5" stroke-miterlimit="10"/><path d="M67.4 64.5l-5.2-1.8c-.4-.2-.7-.6-.5-1.1l15.6-44c.2-.4.6-.7 1.1-.5l4.3 1.5c.4.1.7.6.5 1L68.4 63.9c-.1.5-.6.7-1 .6z" fill="#f3e5c7" stroke="#333" stroke-width="3.5" stroke-miterlimit="10"/><path d="M54 74.7l-5.2-1.8c-.4-.2-.7-.6-.5-1.1l15.6-44c.2-.4.6-.7 1.1-.5l4.3 1.5c.4.1.7.6.5 1L55.1 74.2c-.2.5-.7.7-1.1.5z" fill="#f3e5c7" stroke="#333" stroke-width="3.5" stroke-miterlimit="10"/><path d="M44.5 58.3L39 58c-.5 0-.8-.4-.8-.9l2.6-46.6c0-.5.4-.8.9-.8l4.6.2c.5 0 .8.4.8.9l-1.6 46.6c-.2.5-.6.9-1 .9z" fill="#f3e5c7" stroke="#333" stroke-width="3.5" stroke-miterlimit="10"/><path d="M38.6 66.9l-5.5.6c-.5.1-.9-.3-.9-.7l-5-46.4c0-.5.3-.9.7-.9l4.6-.5c.5-.1.9.3.9.7L39.3 66c.1.4-.3.8-.7.9z" fill="#f3e5c7" stroke="#333" stroke-width="3.5" stroke-miterlimit="10"/><path d="M63.4 43h0c0 2.1-1.7 3.9-3.9 3.9h-18c-2.1 0-3.9-1.7-3.9-3.9v0c0-2.1-1.7-3.9-3.9-3.9H23.3l5.2 47.3c0 5 44 5 44 0l5.2-47.3H67.2c-2.1.1-3.8 1.8-3.8 3.9z" fill="#e15c64" stroke="#333" stroke-width="3.5" stroke-miterlimit="10"/><path d="M82.6 18.6l-4.3-1.5c-.4-.1-.9.1-1.1.5L74 26.5l.1-4.5c0-.5-.4-.8-.8-.8l-4.6-.1c-.5 0-.8.3-.9.8l-.2 6.4-2.7-.9c-.4-.1-.9.1-1.1.5l-.1.3v-3.3c-1.2 4.5-2.5 8.9-3.8 13.4L37.5 42c.1.3.2.7.2 1 0 2.1 1.7 3.9 3.9 3.9h15.9C53 61.2 48.1 75.6 42.6 90c12.9.8 29.9-.4 29.9-3.5l5.2-47.3h-1.1l1.3-3.8h0l5.2-15.7c.2-.5 0-.9-.5-1.1zM67.2 39.2c-.2 0-.3 0-.5.1l.7-2-.2 1.9h0z" opacity=".2" stroke="#000" stroke-width="3.5" stroke-linejoin="round" stroke-miterlimit="10"/><path stroke="#fff" stroke-width="3.5" stroke-linejoin="round" fill="none" stroke-linecap="round" stroke-miterlimit="10" d="M33.3 65.8l.3 1.9"/><path stroke="#fff" stroke-width="3.5" stroke-linejoin="round" fill="none" stroke-linecap="round" stroke-miterlimit="10" d="M30.9 47.3l1.4 11.5"/><metadata xmlns:d="https://loading.io/stock/"><d:name>french fries</d:name><d:tags>french fries,chips,fries,finger chips,fried potatoes,mcdonald</d:tags><d:license>by</d:license><d:slug>10lwz6</d:slug></metadata></svg>