<?xml version="1.0"?>
<svg version="1.1" id="Layer_1" xmlns="http://www.w3.org/2000/svg" x="0" y="0" viewBox="0 0 100 100" xml:space="preserve"><g><path d="M65.3 64.6H34.7c-1.4 0-2.7-1-3-2.4l-2.7-11c-.5-1.9 1-3.8 3-3.8h36c2 0 3.5 1.9 3 3.8l-2.7 11c-.3 1.5-1.6 2.4-3 2.4z" fill="#f7b26a"/><path d="M65.4 64.6H34.6l2.8 22.6c.2 1.6 1.5 2.7 3.1 2.7h19c1.6 0 2.9-1.2 3.1-2.7l2.8-22.6z" fill="#f7b26a"/><path stroke-miterlimit="10" fill="#f7b26a" stroke="#f47e5f" stroke-width="2" stroke-linecap="round" d="M61.5 64.6H37.4"/></g><g><path d="M62.1 37.9H37.9c-3.2 0-5.8-2.6-5.8-5.8 0-3.2 2.6-5.8 5.8-5.8h24.3c3.2 0 5.8 2.6 5.8 5.8-.1 3.2-2.7 5.8-5.9 5.8z" fill="#e0e0e0"/><path d="M67.5 47.5h-35c-3.1 0-5.6-2.5-5.6-5.6v-.5c0-3.1 2.5-5.6 5.6-5.6h35c3.1 0 5.6 2.5 5.6 5.6v.6c0 3-2.5 5.5-5.6 5.5z" fill="#e0e0e0"/><path d="M55.1 16.9c-1.6-1.2-1.8-3.5-.3-4.7.4-.4.9-.7 1.3-1-.2-.2-.4-.4-.6-.5-3.1-2-8.4.6-11.8 5.9 0 .1-.1.1-.1.2-.1.1-.2.3-.3.4-.1.2-.2.3-.3.5-.1.2-.2.3-.3.5-.1.2-.2.3-.2.5-.1.2-.2.3-.2.5-.1.1-.1.3-.2.4-.1.1-.1.2-.2.4 0 .1-.1.2-.1.3 0 .1-.1.2-.1.3-.1.3-.1.5-.2.8-.1.3-.1.5-.1.8 0 .2-.1.5-.1.7V24.1c0 4.9 4 8.9 9 8.7 4.4-.1 8.1-3.7 8.4-8 .2-3.4-1.2-6.2-3.6-7.9z" fill="#e0e0e0"/><path d="M48.4 16.2c-.9 1.3-1.6 3.1-1.9 5-.1.5-.1 1-.2 1.4" stroke="#fff" stroke-width="2" stroke-linecap="round" fill="none" stroke-miterlimit="10"/><path stroke="#fff" stroke-width="2" stroke-linecap="round" fill="none" stroke-miterlimit="10" d="M33.8 37.9h22"/><path stroke="#fff" stroke-width="2" stroke-linecap="round" fill="none" stroke-miterlimit="10" d="M37.4 28.8h14.8"/></g><metadata xmlns:d="https://loading.io/stock/"><d:name>ice cream</d:name><d:tags>ice cream,ice cream cone,sundae,popsicle,dessert,food</d:tags><d:license>by</d:license><d:slug>li0hpl</d:slug></metadata></svg>