<?xml version="1.0"?><svg version="1.1" id="圖層_1" xmlns="http://www.w3.org/2000/svg" x="0" y="0" viewBox="0 0 100 100" xml:space="preserve"><path d="M21.2 83.5l12.2-12.2-4.8-4.8-12.1 12.3-4.2-4.2c-1.3-1.3-3.5-1.3-4.8 0l17.9 17.9c1.3-1.3 1.3-3.5 0-4.8l-4.2-4.2z" fill="#e0e0e0"/><g><path d="M68.6 39.2l-7.4-7.4c-1.6-1.6-4.2-1.6-5.7 0L44 43.2l13.1 13.1 11.4-11.4c1.7-1.6 1.7-4.1.1-5.7z" fill="#e15b64"/></g><path fill="none" stroke="#333" stroke-width="2" stroke-linecap="round" stroke-miterlimit="10" d="M68.4 31.6L92.5 7.5"/><path d="M72.2 33L67 27.8c-.6-.6-1.5-.6-2 0l-2.8 2.8c-1.3-.7-2.7-1.1-4.1-1.1-2.1 0-4.3.8-5.9 2.4L26 58.2l-2-2.1c-1.1-1.1-2.8-1.1-3.9 0s-1.1 2.8 0 3.9L40 79.9c1.1 1.1 2.8 1.1 3.9 0s1.1-2.8 0-3.9l-2.1-2L68 47.8c2.7-2.7 3.2-6.8 1.4-10l2.8-2.8c.5-.6.5-1.5 0-2zm-6.5 12.5L39.5 71.7 28.3 60.5l3.2-3.2 3.6 3.6c.3.3.7.5 1.1.5s.8-.2 1.1-.5c.6-.6.6-1.7 0-2.3L33.8 55l1.9-1.9 3.6 3.6c.3.3.7.5 1.1.5s.8-.2 1.1-.5c.6-.6.6-1.7 0-2.3L38 50.8l1.9-1.9 3.6 3.6c.3.3.7.5 1.1.5s.8-.2 1.1-.5c.6-.6.6-1.7 0-2.3l-3.6-3.6 12.3-12.3c1-1 2.3-1.5 3.6-1.5s2.7.5 3.6 1.5l4 4c2.1 1.9 2.1 5.2.1 7.2z" fill="#ccc"/><metadata xmlns:d="https://loading.io/stock/">
<d:name>injection</d:name>
<d:tags>injection,inoculate,entry needle,syringe,treatment,drug,antibiotic,cure</d:tags>
<d:license>by</d:license>
<d:slug>c8c8ir</d:slug>
</metadata></svg>