<?xml version="1.0"?>
<svg version="1.1" id="Layer_1" xmlns="http://www.w3.org/2000/svg" x="0" y="0" viewBox="0 0 100 100" xml:space="preserve"><path d="M92.3 32.9h-2.6c-.3 0-.6-.1-.8-.3-6.5-6.6-15.7-11.8-26.5-14.3-24.2-5.5-47.2 4.5-51.4 22.6-4.1 18 12.1 37.1 36.3 42.7 13.1 3 25.8 1.5 35.4-3.4 1.3-.6 1.8-1.8 1.8-3v-5c0-.6-.5-1.1-1.1-1.1h-2.5c-.6 0-1.1.5-1.1 1.1 0 .7-.7 1.2-1.4 1C65 69.1 55.9 59.9 57.8 51.7c2.1-8.9 16.1-13.2 31.5-9.7h.1c2.2.5 4-1.2 4-3.1V34c0-.6-.5-1.1-1.1-1.1z" fill="#333"/><g><path d="M11 34.9C6.9 52.9 23.1 72 47.3 77.6c13.1 3 25.8 1.5 35.4-3.4 2.7-1.4 2.2-5.4-.8-6h-.1c-15.3-3.5-26.1-13.6-24.1-22.5 2.1-8.9 16.1-13.2 31.5-9.7h.1c3 .7 5.2-2.7 3.3-5.1-6.5-8.6-17.2-15.6-30.3-18.6C38.2 6.8 15.2 16.8 11 34.9z" fill="#f47e5f"/></g><g><path d="M33.4 16.5c-6.3 3.6-11.4 9.3-14.3 16.3" fill="#f47e5f"/><path d="M33.4 16.5c-1.4 1.3-2.7 2.5-4 3.7-1.3 1.3-2.5 2.5-3.7 3.9-1.2 1.3-2.3 2.7-3.4 4.2s-2.1 3-3.2 4.5c.3-1.9 1-3.6 1.8-5.3.9-1.7 1.9-3.3 3.2-4.7 1.2-1.4 2.7-2.7 4.2-3.8 1.6-1.1 3.3-2 5.1-2.5z" fill="#fff"/></g><g><path d="M40.2 18.1c-6.3 3.6-11.4 9.3-14.3 16.3" fill="#f47e5f"/><path d="M40.2 18.1c-1.4 1.3-2.7 2.5-4 3.7-1.3 1.3-2.5 2.5-3.7 3.9-1.2 1.3-2.3 2.7-3.4 4.2s-2.1 3-3.2 4.5c.3-1.9 1-3.6 1.8-5.3.9-1.7 1.9-3.3 3.2-4.7 1.2-1.4 2.7-2.7 4.2-3.8 1.6-1.1 3.3-2 5.1-2.5z" fill="#fff"/></g><g><path d="M47 19.6c-6.3 3.6-11.4 9.3-14.3 16.3" fill="#f47e5f"/><path d="M47 19.6c-1.4 1.3-2.7 2.5-4 3.7-1.3 1.3-2.5 2.5-3.7 3.9-1.2 1.3-2.3 2.7-3.4 4.2s-2.1 3-3.2 4.5c.3-1.9 1-3.6 1.8-5.3.9-1.7 1.9-3.3 3.2-4.7 1.2-1.4 2.7-2.7 4.2-3.8 1.7-1 3.3-1.9 5.1-2.5z" fill="#fff"/></g><g><path d="M65.8 19.8c-9.8 1.5-25.5 9.1-26 17.1" fill="#f47e5f"/><path d="M65.8 19.8c-2.6.8-5.2 1.8-7.6 2.8-2.5 1.1-4.9 2.2-7.2 3.5-2.3 1.3-4.6 2.7-6.6 4.4-2 1.7-3.9 3.7-4.5 6.4-.1-1.4.3-2.8 1-4.1.7-1.3 1.5-2.4 2.5-3.4 2-2 4.3-3.6 6.7-5 2.4-1.3 5-2.4 7.7-3.2 2.4-.8 5.2-1.4 8-1.4z" fill="#fff"/></g><g><path d="M53.6 72.4C45.5 66.7 34.7 53 37.7 45.6" fill="#f47e5f"/><path d="M53.6 72.4c-2.5-1.2-4.7-2.9-6.7-4.8s-3.9-4-5.5-6.3-3-4.8-3.8-7.5c-.4-1.3-.7-2.8-.8-4.2 0-1.4.2-2.9.9-4.1-.6 2.7.3 5.3 1.3 7.7 1.1 2.4 2.5 4.7 4 6.9s3.2 4.3 5 6.3c1.7 2.1 3.6 4.1 5.6 6z" fill="#fff"/></g><g><path d="M23.1 61.2c-4.1-6-6.2-13.3-5.7-20.9" fill="#f47e5f"/><path d="M23.1 61.2c-1.4-1.3-2.5-2.8-3.4-4.5-.9-1.6-1.6-3.4-2.1-5.2-.5-1.8-.8-3.7-.8-5.6 0-1.9.1-3.8.7-5.6.3 1.9.5 3.7.9 5.4.3 1.8.7 3.5 1.2 5.2.5 1.7 1 3.4 1.6 5.1.5 1.7 1.2 3.4 1.9 5.2z" fill="#fff"/></g><g><path d="M29.9 62.8c-4.1-6-6.2-13.3-5.7-20.9" fill="#f47e5f"/><path d="M29.9 62.8c-1.4-1.3-2.5-2.8-3.4-4.5-.9-1.6-1.6-3.4-2.1-5.2-.5-1.8-.8-3.7-.8-5.6 0-1.9.1-3.8.7-5.6.3 1.9.5 3.7.9 5.4.3 1.8.7 3.5 1.2 5.2.5 1.7 1 3.4 1.6 5.1.5 1.7 1.2 3.4 1.9 5.2z" fill="#fff"/></g><g><path d="M36.7 64.3c-4.1-6-6.2-13.3-5.7-20.9" fill="#f47e5f"/><path d="M36.7 64.3c-1.4-1.3-2.5-2.8-3.4-4.5-.9-1.6-1.6-3.4-2.1-5.2-.5-1.8-.8-3.7-.8-5.6 0-1.9.1-3.8.7-5.6.3 1.9.5 3.7.9 5.4.3 1.8.7 3.5 1.2 5.2.5 1.7 1 3.4 1.6 5.1.5 1.8 1.2 3.5 1.9 5.2z" fill="#fff"/></g><g><circle transform="rotate(-76.985 47.01 43.171)" cx="47" cy="43.2" fill="#fff" r="6"/></g><path stroke="#fff" stroke-width="2" fill="none" stroke-miterlimit="10" d="M43.1 42.3L11 34.8"/><metadata xmlns:d="https://loading.io/stock/"><d:name>salmon</d:name><d:tags>salmon,fish,makuro,lox,trout,seafood</d:tags><d:license>by</d:license><d:slug>843g6n</d:slug></metadata></svg>