<?xml version="1.0"?>
<svg version="1.1" id="圖層_1" xmlns="http://www.w3.org/2000/svg" x="0" y="0" viewBox="0 0 100 100" xml:space="preserve"><g><path d="M30 83.1l32.1-55.6c1.1-2 .5-4.4-1.5-5.6-2-1.1-4.4-.5-5.6 1.5L22.9 79c-2.1-.7-4.5.2-5.7 2.2-1.3 2.3-.5 5.3 1.8 6.6 1 .6 2.1.8 3.2.6.4 1 1.1 1.9 2.1 2.5 2.3 1.3 5.3.5 6.6-1.8 1.2-2.1.7-4.5-.9-6z" fill="#f3e5c7"/><path d="M60.6 21.9c-.3-.2-.7-.3-1.1-.4l-34.6 60c1.6 1.6 1.9 4.4.5 6.8-.5.8-1.1 1.5-1.8 2 .2.2.5.4.7.5 2.3 1.3 5.3.5 6.6-1.8 1.2-2 .7-4.5-.9-6l32.1-55.6c1.1-1.9.5-4.4-1.5-5.5z" opacity=".2"/></g><g><g><path d="M63.9 15.5c-14-8.1-28.5-9.3-32.3-2.8l-.1-.1C28 19.5 27.4 27.1 29.2 34c.6 2.3.2 4.7-1.1 6.7-.2.3-.3.5-.5.8-5.2 9-2.3 20.4 6.5 25.4 8.8 5.1 20.1 1.9 25.3-7.1.2-.3.3-.6.5-.9 1.1-2.1 3-3.7 5.2-4.3 6.9-1.9 13.2-6.3 17.4-12.7l-.1-.1c3.8-6.3-4.4-18.2-18.5-26.3z" fill="#67503b"/><path d="M79.2 28.5c0 1.4-.4 2.8-1 4l.1.1c-4.8 7.6-11.9 12.7-19.7 14.9-2.6.7-4.7 2.6-5.9 5.1-.2.3-.3.7-.5 1-4.5 8.1-13.2 12.2-21.5 10.9 1 1 2.1 1.9 3.4 2.6 8.8 5.1 20.1 1.9 25.3-7.1.2-.3.3-.6.5-.9 1.1-2.1 3-3.7 5.2-4.3 6.9-1.9 13.2-6.3 17.4-12.7l-.1-.1c2.1-3.4.7-8.4-3.2-13.5z" opacity=".2"/></g><g><ellipse transform="rotate(-60 57.065 27.418)" cx="57.1" cy="27.4" rx="13.7" ry="29.3" fill="#f37e5f"/><path d="M71.5 20.7c1.5 4.8 1.3 9.7-1.1 14-2.7 4.6-7.4 7.4-12.9 8.2 11.4 4.7 21.9 4.6 25-.8 3-5.3-1.7-14-11-21.4z" opacity=".2"/><ellipse transform="rotate(-60 57.065 27.418)" cx="57.1" cy="27.4" rx="3.6" ry="7.8" fill="#f3e5c7"/></g></g><metadata xmlns:d="https://loading.io/stock/"><d:name>ham</d:name><d:tags>ham,meat,pork,beef,pork knuckle,ham hock,chicken legs,wing stick,schweinshaxe,eisbein,food,gourmet</d:tags><d:license>by</d:license><d:slug>j4fc0</d:slug></metadata></svg>