<?xml version="1.0"?>
<svg version="1.1" id="Layer_1" xmlns="http://www.w3.org/2000/svg" x="0" y="0" viewBox="0 0 100 100" xml:space="preserve"><path d="M38.1 15.2v4.5c0 3.1-.9 6.1-2.7 8.7L32.3 33c-2.5 3.7-3.9 8.1-3.9 12.6v39.9c0 3.9 3.1 7 7 7H50V15.2H38.1z" fill="#a0c8d7"/><path d="M71.6 85.5V46.7c0-5.2-1.6-10.3-4.5-14.6l-2.5-3.7c-1.7-2.6-2.7-5.6-2.7-8.7v-4.5H50v77.3h14.6c3.9 0 7-3.1 7-7z" fill="#77a4bd"/><path d="M37 7.5c-1.8 0-3.2 1.4-3.2 3.2V12c0 1.8 1.4 3.2 3.2 3.2h13V7.5H37z" fill="#acbd81"/><path d="M66.2 12v-1.3c0-1.8-1.4-3.2-3.2-3.2H50v7.7h13c1.8 0 3.2-1.4 3.2-3.2z" fill="#849b87"/><path d="M31.6 50.2v34c0 2.7 2 4.9 4.4 4.9h14V50.2H31.6z" fill="#fff"/><path d="M68.4 84.1v-34H50V89h14c2.4.1 4.4-2.1 4.4-4.9z" fill="#e0e0e0"/><path d="M34.1 42.9c-.2.9-.3 1.9-.3 2.8" stroke-miterlimit="10" fill="#a0c8d7" stroke="#fff" stroke-width="3.241" stroke-linecap="round"/><path d="M40.8 29.5L37.7 34c-.6 1-1.2 2-1.7 3" stroke-miterlimit="10" fill="#a0c8d7" stroke="#fff" stroke-width="3.241" stroke-linecap="round"/><metadata xmlns:d="https://loading.io/stock/"><d:name>milk</d:name><d:tags>milk,butter,drink,bottle,water,liquid,cup,glass,cook</d:tags><d:license>by</d:license><d:slug>ysf2n8</d:slug></metadata></svg>