<?xml version="1.0"?><svg version="1.1" id="圖層_1" xmlns="http://www.w3.org/2000/svg" x="0" y="0" viewBox="0 0 100 100" xml:space="preserve"><path d="M92.5 58.92C92.5 19.545 50 33.797 50 33.797S7.5 19.545 7.5 58.92C7.5 98.055 50 84.043 50 84.043S92.5 98.055 92.5 58.92z" fill="#f47e60"/><path d="M47.932 36.537a37.215 37.215 0 0 1 2.816-12.159 36.516 36.516 0 0 1 2.983-5.696c.63-.948 1.365-1.924 2.345-2.85.977-.919 2.242-1.792 3.77-2.315l2.049 7.227c-.358.018-.815.156-1.343.484-.526.328-1.096.827-1.663 1.424a30.512 30.512 0 0 0-3.243 4.242A32.706 32.706 0 0 0 51.4 37.016l-3.468-.479z" fill="#333"/><path d="M75.623 37.44c2.459 1.244 2.953 3.199 3.674 5.005 1.369 3.429 1.994 6.944 2.391 10.498.36 3.225.428 6.447.215 9.655-.344 5.189-.936 10.381-3.685 15.314-.678 1.217-.961 1.509-2.104 2.104 2.693-7.077 2.549-14.215 2.513-21.34-.035-7.136.378-14.311-3.015-21.23l.011-.006z" opacity=".2"/><path d="M37.478 37.371a42.19 42.19 0 0 0-.783 8.29c.045 9.811.029 19.623.026 29.434-.001 1.563.667 3.105.291 4.678-4.786-4.95-5.044-36.232.466-42.402z" opacity=".2"/><path d="M24.394 37.713c-3.165 6.985-2.91 14.215-2.908 21.378.003 7.111-.208 14.283 2.975 21.5-1.866-1.234-2.506-2.594-3.12-3.931-1.487-3.24-2.118-6.586-2.619-9.957-.636-4.279-.472-8.565-.261-12.837.234-4.734 1.158-9.434 3.634-13.92.484-.877.979-1.751 2.252-2.264l.047.031z" opacity=".2"/><path d="M50.111 80.477c-2.15-14.345-2.109-28.668-.009-42.991a145.79 145.79 0 0 1 .009 42.991z" opacity=".2"/><path d="M63.193 38.061c4.745 4.722 4.7 36.526-.015 41.763.707-14.086.743-28.001.015-41.763z" opacity=".2"/><metadata xmlns:d="https://loading.io/stock/">
<d:name>pumpkin</d:name>
<d:tags>pumpkin,fruit,vegetable,halloween,plant,squash</d:tags>
<d:license>by</d:license>
<d:slug>38a07r</d:slug>
</metadata></svg>