<?xml version="1.0"?><svg xmlns="http://www.w3.org/2000/svg" viewBox="0 0 100 100"><path d="M65.9 26.1c0 8.9-8.1 16.1-8.1 16.1s-8.1-7.2-8.1-16.1S57.8 10 57.8 10s8.1 7.2 8.1 16.1z" fill="#abbd81" stroke="#333" stroke-width="3" stroke-linecap="round" stroke-linejoin="round" stroke-miterlimit="10"/><path d="M73.9 50.3c-8.9 0-16.1-8.1-16.1-8.1s7.2-8.1 16.1-8.1S90 42.2 90 42.2s-7.2 8.1-16.1 8.1z" fill="#abbd81" stroke="#333" stroke-width="3" stroke-linecap="round" stroke-linejoin="round" stroke-miterlimit="10"/><path d="M74.9 36.6c-6.3 6.3-17.1 5.7-17.1 5.7s-.6-10.8 5.7-17.1 17.1-5.7 17.1-5.7.6 10.8-5.7 17.1z" fill="#abbd81" stroke="#333" stroke-width="3" stroke-linecap="round" stroke-linejoin="round" stroke-miterlimit="10"/><g><path d="M51.3 31.2l17.5 17.5c5.5 5.5 4 14.8-3 18.3L21.7 89.1c-6.9 3.5-14.3-3.9-10.8-10.8L33 34.2c3.5-7 12.8-8.5 18.3-3z" fill="#f47e60" stroke="#333" stroke-width="3" stroke-linecap="round" stroke-linejoin="round" stroke-miterlimit="10"/><path fill="none" stroke="#333" stroke-width="3" stroke-linecap="round" stroke-linejoin="round" stroke-miterlimit="10" d="M30.5 39.2l10.7 10.7"/><path fill="none" stroke="#333" stroke-width="3" stroke-linecap="round" stroke-linejoin="round" stroke-miterlimit="10" d="M24.2 51.8l7.5 7.5"/><path fill="none" stroke="#333" stroke-width="3" stroke-linecap="round" stroke-linejoin="round" stroke-miterlimit="10" d="M18.2 63.7l4.5 4.6"/></g><metadata xmlns:d="https://loading.io/stock/">
<d:name>carrot</d:name>
<d:tags>carrot,radish,food,beetroot,parsnip,turnip,rutabaga,kohlrabi,rabbit,root vegetable</d:tags>
<d:license>by</d:license>
<d:slug>3azc7n</d:slug>
</metadata></svg>