<?xml version="1.0"?>
<svg version="1.1" id="圖層_1" xmlns="http://www.w3.org/2000/svg" x="0" y="0" viewBox="0 0 100 100" xml:space="preserve"><g><path fill="#e0e0e0" stroke="#332518" stroke-width="4" stroke-linecap="round" stroke-miterlimit="10" d="M41.636 36.62l14.528 3.734"/><path fill="#e0e0e0" stroke="#332518" stroke-width="4" stroke-linecap="round" stroke-miterlimit="10" d="M42.668 34.161l14.528 3.734"/><path fill="#e0e0e0" stroke="#332518" stroke-width="4" stroke-linecap="round" stroke-miterlimit="10" d="M43.701 31.702l14.527 3.735"/><path fill="#e0e0e0" stroke="#332518" stroke-width="4" stroke-linecap="round" stroke-miterlimit="10" d="M44.733 29.244l14.528 3.734"/></g><g><path d="M35.526 17.324c-.099-.193-.2-.404-.158-.617.053-.263.307-.43.544-.556a8.178 8.178 0 0 1 5.265-.806 33.488 33.488 0 0 1-.576-5.764 34.524 34.524 0 0 1 13.424 4.732 5.813 5.813 0 0 0-.445 3.075 18.41 18.41 0 0 1 11.951 1.396 51.307 51.307 0 0 0-10.53 18.594c-.124.395-.259.815-.581 1.076-.302.245-.711.302-1.097.349l-6.052.74c-.997.129-4.871-8.806-5.553-10.141-2.059-4.028-4.128-8.052-6.192-12.078z" fill="#abbd81"/><path d="M83.215 74.295c0 14.751-14.871 16.123-33.215 16.123s-33.215-1.372-33.215-16.123S31.656 40.23 50 40.23s33.215 19.314 33.215 34.065z" fill="#abbd81"/></g><g><path fill="none" stroke="#332518" stroke-width="4" stroke-linecap="round" stroke-miterlimit="10" d="M41.48 39.691l14.841-2.18"/><path fill="none" stroke="#332518" stroke-width="4" stroke-linecap="round" stroke-miterlimit="10" d="M41.48 37.024l14.841-2.18"/><path fill="none" stroke="#332518" stroke-width="4" stroke-linecap="round" stroke-miterlimit="10" d="M41.48 34.357l14.841-2.18"/><path fill="none" stroke="#332518" stroke-width="4" stroke-linecap="round" stroke-miterlimit="10" d="M41.48 31.691l14.841-2.18"/></g><g><g><path d="M49.875 78.478c-5.121 0-9.133-3.147-9.133-7.165h3.703c0 1.876 2.486 3.462 5.43 3.462 2.202 0 5.93-.729 5.93-3.462 0-3.295-4.939-3.462-5.93-3.462-5.437 0-9.383-3.013-9.383-7.165 0-4.286 3.771-7.165 9.383-7.165 5.121 0 9.133 3.147 9.133 7.165h-3.703c0-1.876-2.486-3.462-5.43-3.462-2.62 0-5.68.907-5.68 3.462 0 2.273 2.857 3.462 5.68 3.462 5.852 0 9.633 2.813 9.633 7.165 0 4.286-3.871 7.165-9.633 7.165z" fill="#e0e0e0"/></g><g><path fill="#e0e0e0" d="M47.954 51h3.843v30h-3.843z"/></g></g><metadata xmlns:d="https://loading.io/stock/"><d:name>bag</d:name><d:tags>bag,wealth,vault,capital,saving,rich</d:tags><d:license>by</d:license><d:slug>qtbltp</d:slug></metadata></svg>