<?xml version="1.0"?>
<svg version="1.1" id="圖層_1" xmlns="http://www.w3.org/2000/svg" x="0" y="0" viewBox="0 0 100 100" xml:space="preserve"><g><g><path d="M71.146 49.603c-.126.112-.128.105-.005-.02l.757-.205-.123.001c-.784.005-1.536.686-1.5 1.5.036.809.659 1.505 1.5 1.5.64-.004 1.026-.269 1.492-.655.624-.517.535-1.586 0-2.121-.617-.618-1.495-.518-2.121 0z" fill="#fff"/></g></g><path d="M90.752 25.127a18.46 18.46 0 0 0-6.105-12.844A18.534 18.534 0 0 0 72.203 7.5a18.618 18.618 0 0 0-13.799 6.122 6.43 6.43 0 0 0-1.388 6.203H17.855c-5.602 0-7.53 2.96-8.1 4.233-.568 1.272-1.489 4.683 2.245 8.859l18.836 21.062c2.715 3.036 5.097 9.272 5.097 13.345v5.37c0 3.463-2.831 7.6-6.059 8.853l-.874.34c-1.758.683-6.427 2.497-5.667 6.555.76 4.058 5.77 4.058 7.656 4.058h23.904c1.886 0 6.895 0 7.656-4.058.761-4.058-3.908-5.872-5.666-6.555l-.874-.339c-3.228-1.254-6.059-5.391-6.059-8.853v-5.37c0-4.073 2.381-10.309 5.096-13.345l10.952-12.247c.158.237.326.468.516.686a6.43 6.43 0 0 0 4.439 2.195 18.59 18.59 0 0 0 15.033-6.088 18.461 18.461 0 0 0 4.766-13.399z" fill="#d1d1d1"/><path d="M72.02 40.677c-.333 0-.668-.011-1.004-.033a2.682 2.682 0 1 1 .356-5.352 9.375 9.375 0 0 0 7.632-3.089 9.365 9.365 0 0 0 2.419-6.799 9.367 9.367 0 0 0-3.099-6.517c-3.859-3.484-9.832-3.179-13.315.68a2.681 2.681 0 1 1-3.982-3.595c5.466-6.054 14.837-6.533 20.892-1.067 2.933 2.647 4.659 6.279 4.86 10.225s-1.146 7.734-3.794 10.667a14.706 14.706 0 0 1-10.965 4.88zM52.411 51.265l18.836-21.062c3.334-3.728 1.969-6.778-3.032-6.778h-50.17c-5.001 0-6.365 3.05-3.031 6.778L33.85 51.265c3.334 3.728 6.061 10.869 6.061 15.87v5.37c0 5.001-3.814 10.574-8.475 12.385l-.873.339c-4.661 1.81-4.384 3.291.617 3.291h23.904c5.001 0 5.279-1.482.617-3.291l-.873-.339c-4.661-1.811-8.475-7.384-8.475-12.385v-5.37c-.003-5.001 2.725-12.143 6.058-15.87zm-12.312-5.711c-3.871 0-7.009-2.502-7.009-5.588s3.138-5.588 7.009-5.588 7.009 2.502 7.009 5.588-3.138 5.588-7.009 5.588z" fill="#454545"/><metadata xmlns:d="https://loading.io/stock/"><d:name>bar</d:name><d:tags>lounge bar,pub,drink,wine,alcoholic,vodka,bar,map</d:tags><d:license>free</d:license><d:slug>rqhge4</d:slug></metadata></svg>