<?xml version="1.0"?><svg version="1.1" id="Layer_1" xmlns="http://www.w3.org/2000/svg" x="0" y="0" viewBox="0 0 100 100" xml:space="preserve"><g><circle cx="41.15" cy="49.741" r="13.281" fill="#f3e4c7" stroke="#333" stroke-width="3.5" stroke-miterlimit="10"/><path d="M79.807 17.319c-.34-.5-.86-.843-1.365-1.174l-7.209-4.715c-.857-.56-1.738-1.131-2.737-1.353-.999-.222-1.838.042-2.644.673-1.605 1.257-2.87 2.885-4.249 4.387-1.749 1.904-3.906 3.468-6.298 4.446-1.297.53-2.503 1.249-3.786 1.771-1.55.63-3.398.694-5.031 1.032-1.187.246-2.385.546-3.423 1.171-1.001.603-1.808 1.483-2.498 2.425-2.445 3.338-3.522 7.455-4.548 11.463l-.009.034a13.215 13.215 0 0 1 5.479-1.193c1.27 0 2.495.189 3.658.522.303-.457.62-.905.974-1.325C47.539 33.8 56.35 28.044 56.269 33.3l-.061 3.947c-.006.368-.014.747-.164 1.083-.326.73-2.152 1.023-2.862 1.352-.685.318-1.352.576-1.992.836-1.794.728-3.364 1.468-4.44 3.566-.579 1.128-1.639 3.738-1.019 5.005.751 1.533 3.67.213 4.724-.195 1.421-.55 2.744-1.05 4.123-1.484.766-.24 1.544-.466 2.377-.654 1.327-.3 2.679-.61 3.844-1.312 2.231-1.343 3.029-3.181 4.179-5.36a122.09 122.09 0 0 1 4.115-7.196c.928-1.503 1.893-2.99 3.036-4.336 2.693-3.171 6.389-5.586 8.196-9.333.301-.616-.133-1.333-.518-1.9z" fill="#fff" stroke="#333" stroke-linejoin="round" stroke-width="3.5" stroke-miterlimit="10"/></g><g><path d="M54.851 90H26.884a3.496 3.496 0 0 1-3.496-3.496v-27.12h34.958v27.12A3.495 3.495 0 0 1 54.851 90z" stroke-width="3.5" stroke="#333" fill="#f0af6b" stroke-miterlimit="10"/><path d="M60.394 61.055H21.341a1.767 1.767 0 0 1-1.767-1.767v-3.09c0-.976.791-1.767 1.767-1.767h39.054c.976 0 1.767.791 1.767 1.767v3.09c0 .976-.791 1.767-1.768 1.767z" stroke="#333" stroke-width="3.5" fill="#ea7c60" stroke-miterlimit="10"/><g><circle cx="40.868" cy="75.561" r="8.979" fill="none" stroke="#b93a38" stroke-width="3.5" stroke-miterlimit="10"/><path fill="none" stroke="#b93a38" stroke-width="3.5" stroke-miterlimit="10" d="M40.868 66.582V84.54"/><path fill="none" stroke="#b93a38" stroke-width="3.5" stroke-miterlimit="10" d="M40.868 73.999l7.08 7.081"/></g></g><metadata xmlns:d="https://loading.io/stock/">
<d:name>political contributions</d:name>
<d:tags>political contributions,donate,support,backer,stakeholder,fund,money,invest,subscribe</d:tags>
<d:license>by</d:license>
<d:slug>l3gsiw</d:slug>
</metadata></svg>