<?xml version="1.0"?>
<svg version="1.1" id="圖層_1" xmlns="http://www.w3.org/2000/svg" x="0" y="0" viewBox="0 0 100 100" xml:space="preserve"><path d="M90.644 68.634c.194-.366.324-.769.378-1.196.671-5.249 1.069-15.505-3.81-25.225-6.07-12.096-18.015-19.438-35.502-21.824a8.124 8.124 0 0 0-.84-.078 13.561 13.561 0 0 0-.553-.013c-1.359 0-2.461.297-3.367.91a3.769 3.769 0 0 0-1.628 3.025c-.018.992.295 1.87.931 2.613.425.507.986.884 1.616 1.087 14.013 4.51 23.804 14.064 27.024 18.486.43.591.851 1.201 1.262 1.827a27.843 27.843 0 0 0-3.381-2.338c-3.653-2.145-7.521-3.461-10.824-4.466-6.888-2.096-12.649-4.558-17.609-7.527-5.423-3.247-9.618-6.756-12.826-10.728-1.623-2.008-2.985-4.248-4.427-6.621l-.451-.742c-.868-1.424-2.309-2.551-3.854-3.014a3.521 3.521 0 0 0-3.027.488 3.517 3.517 0 0 0-1.493 2.678c-.289 5.033.326 9.586 1.88 13.92 1.177 3.278 2.627 5.97 4.432 8.231 3.935 4.927 9.216 8.373 15.696 10.243 3.601 1.039 7.289 1.807 10.856 2.55 1.066.222 2.132.444 3.196.673 6.416 1.382 11.317 3.189 15.426 5.688 3.996 2.429 7.018 5.516 9.227 9.429h-66.96A4.521 4.521 0 0 0 7.5 71.226v11.597a4.521 4.521 0 0 0 4.516 4.516h67.295a4.5 4.5 0 0 0 3.032-1.172h1.614c.402 0 .79-.053 1.16-.153.369.1.758.153 1.159.153h1.9c2.384 0 4.324-1.877 4.324-4.184v-9.916c0-1.42-.734-2.677-1.856-3.433z" fill="#d1d1d1"/><path d="M79.311 70.226H12.016c-.55 0-1 .45-1 1v11.597c0 .55.45 1 1 1h67.295c.55 0 1-.45 1-1V71.226c0-.551-.45-1-1-1zm-2.282 9.193c0 .468-.383.85-.849.85H33.675a.853.853 0 0 1-.85-.85v-4.788c0-.468.382-.85.85-.85H76.18c.467 0 .849.383.849.85v4.788zm7.736 2.564c0 .367-.363.668-.808.668h-1.9c-.444 0-.808-.301-.808-.668v-9.916c0-.368.363-.667.808-.667h1.9c.444 0 .808.3.808.667v9.916zm4.219 0c0 .367-.363.668-.808.668h-1.9c-.444 0-.808-.301-.808-.668v-9.916c0-.368.363-.667.808-.667h1.9c.444 0 .808.3.808.667v9.916zm-5.698-15.47c.071-.139.151-.272.227-.411a36.725 36.725 0 0 0-2.468-6.18c-2.366-4.633-5.622-8.38-10.052-10.982-3.149-1.849-6.575-3.072-10.067-4.134-6.439-1.959-12.632-4.427-18.393-7.874-5.193-3.11-9.91-6.775-13.754-11.534-1.951-2.414-3.519-5.075-5.146-7.743-.488-.801-1.264-1.297-1.861-1.476-.249 4.338.239 8.516 1.679 12.53.947 2.638 2.16 5.082 3.87 7.225 3.637 4.553 8.409 7.468 13.923 9.059 4.521 1.304 9.194 2.168 13.817 3.164 5.831 1.256 11.434 3.032 16.512 6.121 4.475 2.72 8.059 6.335 10.629 11.002.306.556.593 1.128.88 1.714.059-.163.123-.322.204-.481zm4.25.478c1.222-9.556 1.638-37.944-36.302-43.119a4.56 4.56 0 0 0-.52-.049c-.551-.025-1.312-.03-1.797.298a.257.257 0 0 0-.081.173c-.003.183.043.209.109.29 15.018 4.833 25.284 14.949 28.789 19.764 5.092 6.994 8.66 15.855 9.304 22.017.181.193.347.404.498.626z" fill="#464646"/><metadata xmlns:d="https://loading.io/stock/"><d:name>smoking</d:name><d:tags>cigarette,smoking,map</d:tags><d:license>free</d:license><d:slug>35zaun</d:slug></metadata></svg>