<?xml version="1.0"?><svg xmlns="http://www.w3.org/2000/svg" viewBox="0 0 100 100"><circle cx="50" cy="15.876" r="10.876" fill="#849b87"/><g><path d="M68.764 58.635a3.985 3.985 0 0 1-3.985-3.985v-6.642c0-8.149-6.63-14.779-14.779-14.779s-14.779 6.63-14.779 14.779v6.642a3.985 3.985 0 1 1-7.97 0v-6.642c0-12.544 10.205-22.749 22.749-22.749s22.749 10.205 22.749 22.749v6.642c0 2.2-1.784 3.985-3.985 3.985z" fill="#849b87"/></g><path fill="#849b87" d="M38.417 32.167h23.167v33.667H38.417z"/><path d="M43.399 53.487a4.94 4.94 0 0 0-4.94 4.94V90.06a4.94 4.94 0 0 0 9.88 0V58.427a4.94 4.94 0 0 0-4.94-4.94z" fill="#849b87"/><path d="M56.601 53.487a4.94 4.94 0 0 1 4.94 4.94V90.06a4.94 4.94 0 0 1-9.88 0V58.427a4.94 4.94 0 0 1 4.94-4.94z" fill="#849b87"/><metadata xmlns:d="https://loading.io/stock/">
<d:name>man</d:name>
<d:tags>man,people,character,person,figure,idol,doll</d:tags>
<d:license>by</d:license>
<d:slug>mq5ux</d:slug>
</metadata></svg>