<?xml version="1.0"?><svg version="1.1" id="圖層_1" xmlns="http://www.w3.org/2000/svg" x="0" y="0" viewBox="0 0 100 100" xml:space="preserve"><circle cx="50" cy="49" r="42.5" fill="none" stroke="#e0e0e0" stroke-width="4" stroke-miterlimit="10"/><path d="M81.6 27.7L58.5 41.1l-4.9-8.4 23.1-13.4c1.9-1.1 4.3-.4 5.4 1.5l.9 1.6c1.2 1.8.5 4.2-1.4 5.3z" fill="#666"/><path d="M18.2 27.7l23.1 13.4 4.9-8.4-23.1-13.4c-1.9-1.1-4.3-.4-5.4 1.5l-.9 1.6c-1.2 1.8-.5 4.2 1.4 5.3z" fill="#666"/><path d="M60.2 53.3l13.4 27.1c1.1 1.9.4 4.3-1.5 5.4l-1.6.9c-1.9 1.1-4.3.4-5.4-1.5L51.8 58.1l8.4-4.8z" fill="#666"/><path d="M39.6 53.3L26.2 80.4c-1.1 1.9-.4 4.3 1.5 5.4l1.6.9c1.9 1.1 4.3.4 5.4-1.5L48 58.1l-8.4-4.8z" fill="#666"/><g><circle cx="50.1" cy="20.2" r="10.2" fill="#333"/></g><path fill="#333" d="M37.8 30.5h24.5v32.6H37.8z"/><path d="M82.3 40.2H55.6v-9.7h26.7c2.2 0 4 1.8 4 4v1.8c0 2.1-1.8 3.9-4 3.9z" fill="#333"/><path d="M62.4 55.3V86c0 2.2-1.8 4-4 4h-1.8c-2.2 0-4-1.8-4-4V55.3h9.8z" fill="#333"/><path d="M17.7 40.2h26.7v-9.7H17.7c-2.2 0-4 1.8-4 4v1.8c0 2.1 1.8 3.9 4 3.9z" fill="#333"/><path d="M37.8 55.3V86c0 2.2 1.8 4 4 4h1.8c2.2 0 4-1.8 4-4V55.3h-9.8z" fill="#333"/><metadata xmlns:d="https://loading.io/stock/">
<d:name>da vinci</d:name>
<d:tags>human body,circle,da vinci,astrology</d:tags>
<d:license>by</d:license>
<d:slug>a6s2ox</d:slug>
</metadata></svg>