<?xml version="1.0" encoding="utf-8"?><!--Generator: Adobe Illustrator 21.0.0, SVG Export Plug-In . SVG Version: 6.00 Build 0)--><svg version="1.1" id="圖層_1" xmlns="http://www.w3.org/2000/svg" xmlns:xlink="http://www.w3.org/1999/xlink" x="0px" y="0px" viewBox="0 0 100 100" enable-background="new 0 0 100 100" xml:space="preserve"><g><path fill="#666868" stroke="#333435" stroke-width="3.5" stroke-linecap="round" stroke-linejoin="round" stroke-miterlimit="10" d=" M90,51.5c0,29-9.6,26.7-47.1,26.7C19.3,78.1,10,80.4,10,51.5s9.3-26.6,32.9-26.7C79.7,24.8,90,22.5,90,51.5z"/><circle fill="#333435" cx="78.8" cy="50.3" r="4"/><circle fill="#333435" cx="78.8" cy="62.8" r="4"/><line fill="none" stroke="#333435" stroke-width="3.5" stroke-linecap="round" stroke-linejoin="round" stroke-miterlimit="10" x1="27" y1="78.2" x2="27" y2="83.1"/><line fill="none" stroke="#333435" stroke-width="3.5" stroke-linecap="round" stroke-linejoin="round" stroke-miterlimit="10" x1="73" y1="78.2" x2="73" y2="83.1"/></g><path fill="#FFFFFF" stroke="#333435" stroke-width="3.5" stroke-linecap="round" stroke-linejoin="round" stroke-miterlimit="10" d=" M68.8,51.5c0,18.3-8.1,19.5-25.7,19.5s-25.7-1.2-25.7-19.5S25.5,32,43.1,32S68.8,33.1,68.8,51.5z"/><g><line fill="none" stroke="#333435" stroke-width="3.5" stroke-linecap="round" stroke-linejoin="round" stroke-miterlimit="10" x1="50" y1="24.7" x2="42.1" y2="16.9"/><line fill="none" stroke="#333435" stroke-width="3.5" stroke-linecap="round" stroke-linejoin="round" stroke-miterlimit="10" x1="50" y1="24.7" x2="57.9" y2="16.9"/></g><metadata xmlns:d="https://loading.io/stock/">
<d:name>television</d:name>
<d:tags>movie,tv,show,video,play,broadcast,living room,watch,on air,crt,program</d:tags>
<d:license>by</d:license>
<d:slug>jl6svx</d:slug>
</metadata></svg>